<?xml version="1.0" encoding="UTF-8"?>
<svg version="1.1" xmlns="http://www.w3.org/2000/svg" width="52" height="52">
<path d="M0 0 C3 1 3 1 5 3.6875 C8.56382246 8.1640087 13.68215048 11.03636878 19 13 C25.22734345 12.57715569 31.38411641 8.57519207 35.7578125 4.26953125 C36.90022306 2.89537455 37.96132092 1.45415072 39 0 C39.66 0.33 40.32 0.66 41 1 C39.6156363 8.39541663 38.29329226 15.24541001 32 20 C29.80859375 20.67578125 29.80859375 20.67578125 28 21 C28.01324398 24.09909072 28.18987431 26.99992163 29 30 C31.79787307 32.19867777 31.79787307 32.19867777 35 34 C38.85457875 39.35358159 40.01138463 44.53497578 41 51 C40.01 51 39.02 51 38 51 C36.74609375 49.6796875 36.74609375 49.6796875 35.4375 47.875 C31.81566044 43.42712685 27.31868183 40.17662227 22 38 C14.95450826 38.70590669 8.64385578 44.09078103 4 49 C2.68593153 49.70387945 1.35475013 50.3780078 0 51 C1.03504497 43.34611484 2.08021256 37.45863598 8.125 32.125 C10 31 10 31 12 31 C12.65065183 25.14168663 12.65065183 25.14168663 9.75 20.3125 C8.8425 19.549375 7.935 18.78625 7 18 C1.96080676 12.24092202 0.75642166 7.43814634 0 0 Z " fill="#F7DE70" transform="translate(5,0)"/>
<path d="M0 0 C3 1 3 1 4.9375 3.625 C7.46640908 6.85552715 10.35858059 8.47529542 13.9375 10.4375 C19.21766466 13.35428639 22.4432194 16.1588264 26 21 C25.1875 22.9375 25.1875 22.9375 24 25 C23.01 25.33 22.02 25.66 21 26 C17.8125 24.0625 17.8125 24.0625 15 22 C14.67 22.99 14.34 23.98 14 25 C5.91744336 17.15516561 1.16486455 11.45450137 0 0 Z " fill="#F3D26A" transform="translate(5,0)"/>
<path d="M0 0 C1.65 0.66 3.3 1.32 5 2 C5 2.66 5 3.32 5 4 C3.02 4.99 3.02 4.99 1 6 C2.19976433 9.08510827 3.50002556 12.05047042 5 15 C4.50371094 15.30292969 4.00742187 15.60585938 3.49609375 15.91796875 C-5.71710068 21.3636769 -5.71710068 21.3636769 -13 29 C-13.66 29 -14.32 29 -15 29 C-13.96495503 21.34611484 -12.91978744 15.45863598 -6.875 10.125 C-5 9 -5 9 -3 9 C-2.87625 8.071875 -2.7525 7.14375 -2.625 6.1875 C-2 3 -2 3 0 0 Z " fill="#006492" transform="translate(20,22)"/>
<path d="M0 0 C0.66 0.33 1.32 0.66 2 1 C0.6156363 8.39541663 -0.70670774 15.24541001 -7 20 C-9.19140625 20.67578125 -9.19140625 20.67578125 -11 21 C-11.2165625 22.1446875 -11.2165625 22.1446875 -11.4375 23.3125 C-12 26 -12 26 -13 29 C-15.475 28.01 -15.475 28.01 -18 27 C-16.68 25.68 -15.36 24.36 -14 23 C-15.25566905 19.52276264 -16.73343156 16.90617542 -19 14 C-18.13117187 13.57589844 -17.26234375 13.15179688 -16.3671875 12.71484375 C-9.62773495 9.28480918 -4.47588066 6.26623292 0 0 Z " fill="#00699A" transform="translate(44,0)"/>
<path d="M0 0 C3.0625 -0.5 3.0625 -0.5 7 0 C9.71294856 2.38823271 11.86481726 5.09251712 14 8 C13.1875 9.9375 13.1875 9.9375 12 12 C11.01 12.33 10.02 12.66 9 13 C5.8125 11.0625 5.8125 11.0625 3 9 C2.67 9.99 2.34 10.98 2 12 C0.14404895 8.53555803 -1.33300647 5.7126047 -0.5625 1.75 C-0.376875 1.1725 -0.19125 0.595 0 0 Z " fill="#DCB55E" transform="translate(17,13)"/>
<path d="M0 0 C0.33 0 0.66 0 1 0 C1.12375 0.78375 1.2475 1.5675 1.375 2.375 C1.79117993 5.14057822 1.79117993 5.14057822 4 7 C3.01 7.495 3.01 7.495 2 8 C1.34 7.67 0.68 7.34 0 7 C-0.33 8.65 -0.66 10.3 -1 12 C-3.6875 12.4375 -3.6875 12.4375 -7 12 C-9.04775301 9.88875077 -10.53480226 7.54140493 -12 5 C-11.34 3.68 -10.68 2.36 -10 1 C-6.65626525 1.55728913 -3.96687001 2.35173889 -1 4 C-0.67 2.68 -0.34 1.36 0 0 Z " fill="#DAAF5C" transform="translate(32,25)"/>
<path d="M0 0 C4.02550319 1.3418344 4.88285636 3.4227573 7 7 C7 10.04200046 6.44513658 12.99532806 6 16 C0.99148012 11.67446011 0.63369662 6.23135005 0 0 Z " fill="#D6A659" transform="translate(5,0)"/>
<path d="M0 0 C1.65 0.33 3.3 0.66 5 1 C5.1953125 7.0546875 5.1953125 7.0546875 5 9 C4.34 9.66 3.68 10.32 3 11 C1.35 8.69 -0.3 6.38 -2 4 C-1.34 2.68 -0.68 1.36 0 0 Z " fill="#B38E4E" transform="translate(22,26)"/>
<path d="M0 0 C2.5 2.25 2.5 2.25 5 5 C5 6.32 5 7.64 5 9 C3.02 9.99 3.02 9.99 1 11 C-1 9 -1 9 -1.23046875 7.08984375 C-1.11111111 1.11111111 -1.11111111 1.11111111 0 0 Z " fill="#96723B" transform="translate(25,15)"/>
<path d="M0 0 C2.00293347 3.00440021 2.49271626 4.70993945 3.125 8.1875 C3.29257812 9.08855469 3.46015625 9.98960938 3.6328125 10.91796875 C3.75398438 11.60503906 3.87515625 12.29210938 4 13 C3.01 13 2.02 13 1 13 C-0.6875 10.5 -0.6875 10.5 -2 8 C-1.34 8 -0.68 8 0 8 C0 5.36 0 2.72 0 0 Z " fill="#916230" transform="translate(42,38)"/>
<path d="M0 0 C1.32 0.66 2.64 1.32 4 2 C4 3.98 4 5.96 4 8 C1.36 7.67 -1.28 7.34 -4 7 C-2.68 6.67 -1.36 6.34 0 6 C0 4.02 0 2.04 0 0 Z " fill="#EFCC66" transform="translate(31,31)"/>
<path d="M0 0 C2 2 2 2 2.1953125 4.1640625 C2.17210937 4.97617187 2.14890625 5.78828125 2.125 6.625 C2.10695313 7.44226562 2.08890625 8.25953125 2.0703125 9.1015625 C2.03550781 10.04128906 2.03550781 10.04128906 2 11 C0.68 10.67 -0.64 10.34 -2 10 C-1.34 9.67 -0.68 9.34 0 9 C0 6.03 0 3.06 0 0 Z " fill="#C59650" transform="translate(40,35)"/>
<path d="M0 0 C0.33 0 0.66 0 1 0 C1 3.3 1 6.6 1 10 C-0.65 9.67 -2.3 9.34 -4 9 C-3.34 8.34 -2.68 7.68 -2 7 C-1.28072705 4.68234271 -0.6090107 2.34904126 0 0 Z " fill="#E8BB68" transform="translate(39,34)"/>
<path d="M0 0 C0.99 0.99 1.98 1.98 3 3 C2.34 3 1.68 3 1 3 C1.33 5.64 1.66 8.28 2 11 C1.01 10.34 0.02 9.68 -1 9 C-1.47114738 6.2572492 -1.17805784 3.80441103 -1 1 C-0.67 0.67 -0.34 0.34 0 0 Z " fill="#B38E4E" transform="translate(25,15)"/>
<path d="M0 0 C0.66 0 1.32 0 2 0 C2.33 2.31 2.66 4.62 3 7 C2.01 7 1.02 7 0 7 C-0.66 5.35 -1.32 3.7 -2 2 C-1.34 1.34 -0.68 0.68 0 0 Z " fill="#94723D" transform="translate(22,26)"/>
<path d="M0 0 C2.475 0.99 2.475 0.99 5 2 C5 2.66 5 3.32 5 4 C3.35 4.66 1.7 5.32 0 6 C0 5.34 0 4.68 0 4 C-0.66 3.67 -1.32 3.34 -2 3 C-1.34 2.01 -0.68 1.02 0 0 Z " fill="#17709A" transform="translate(20,22)"/>
<path d="M0 0 C-0.33 1.98 -0.66 3.96 -1 6 C-3.475 5.01 -3.475 5.01 -6 4 C-2.25 0 -2.25 0 0 0 Z " fill="#0C80BA" transform="translate(32,23)"/>
<path d="M0 0 C0.99 0.33 1.98 0.66 3 1 C3 4.3 3 7.6 3 11 C0.43383368 7.15075052 0.44902324 4.5650696 0 0 Z " fill="#8A5B2B" transform="translate(5,0)"/>
<path d="M0 0 C0.33 0 0.66 0 1 0 C1.12375 0.78375 1.2475 1.5675 1.375 2.375 C1.79117993 5.14057822 1.79117993 5.14057822 4 7 C3.01 7.495 3.01 7.495 2 8 C-0.125 7.0625 -0.125 7.0625 -2 6 C-1.34 4.02 -0.68 2.04 0 0 Z " fill="#D1AC57" transform="translate(32,25)"/>
<path d="M0 0 C0.66 0 1.32 0 2 0 C2 1.32 2 2.64 2 4 C1.01 4.33 0.02 4.66 -1 5 C-0.67 3.35 -0.34 1.7 0 0 Z M-1 5 C-1 5.66 -1 6.32 -1 7 C-2.65 7.33 -4.3 7.66 -6 8 C-3.25 5 -3.25 5 -1 5 Z " fill="#0072AB" transform="translate(18,26)"/>
<path d="M0 0 C0.92538169 3.70152678 1.08174162 4.63458162 0 8 C0.66 8.33 1.32 8.66 2 9 C0.02 9.99 0.02 9.99 -2 11 C-1.34 7.37 -0.68 3.74 0 0 Z " fill="#008CBF" transform="translate(7,40)"/>
<path d="M0 0 C3.82097239 0.53069061 6.06171403 1.49701566 9 4 C5.625 3.6875 5.625 3.6875 2 3 C1.34 2.01 0.68 1.02 0 0 Z " fill="#FCE377" transform="translate(13,9)"/>
</svg>
